<svg id="Layer_1" data-name="Layer 1" xmlns="http://www.w3.org/2000/svg" viewBox="0 0 366.85 442"><defs><style>.cls-1{fill:#fff;}</style></defs><title>application</title><path class="cls-1" d="M118.57,477h160a46.06,46.06,0,0,0,46-46V377h11a6,6,0,0,0,6-5.42l2-20.74a96.56,96.56,0,0,0,24.66-10.38l15.92,13.18a6,6,0,0,0,8.07-.37L416,329.48a6,6,0,0,0,.38-8.07l-13.21-16a98.85,98.85,0,0,0,10.41-24.64l20.44-2a6,6,0,0,0,5.41-6V239.14a6,6,0,0,0-5.42-6l-20.73-2a97,97,0,0,0-10.38-24.67l13.18-15.92a6,6,0,0,0-.35-8l-23.48-23.78a6,6,0,0,0-8.1-.41l-16,13.22a98,98,0,0,0-24.63-10.41l-2-20.74a6,6,0,0,0-6-5.42h-11V81a46.06,46.06,0,0,0-46-46h-160a46,46,0,0,0-46,46V431A46,46,0,0,0,118.57,477ZM332,166.56a6,6,0,0,0,4.7,5.29A87,87,0,0,1,365.45,184a6,6,0,0,0,7.08-.42l15-12.45,15.8,16L390.87,202.2a6,6,0,0,0-.37,7.15A84.12,84.12,0,0,1,402.57,238a6,6,0,0,0,5.29,4.7l19.56,1.89v22.82l-19.26,1.89a6,6,0,0,0-5.29,4.7,86.66,86.66,0,0,1-12.12,28.72,6,6,0,0,0,.42,7.08l12.47,15.06-16.05,16.06-15.06-12.47a6,6,0,0,0-7.16-.37,84.32,84.32,0,0,1-28.65,12.07,6,6,0,0,0-4.7,5.29L330.14,365H307.32l-1.89-19.56a6,6,0,0,0-4.7-5.29A86.87,86.87,0,0,1,272,328a6,6,0,0,0-7.08.42l-15.06,12.47-16.06-16.06,12.47-15.06a6,6,0,0,0,.37-7.15A84.12,84.12,0,0,1,234.58,274a6,6,0,0,0-5.29-4.7l-19.56-1.89V244.59l19.56-1.88a6,6,0,0,0,5.29-4.7,86.71,86.71,0,0,1,12.12-28.73,6,6,0,0,0-.42-7.08l-12.47-15.06,16.06-16.06,15.06,12.47a6,6,0,0,0,7.15.37,84.32,84.32,0,0,1,28.65-12.07,6,6,0,0,0,4.7-5.29L307.32,147h22.81ZM118.57,47h160a34,34,0,0,1,34,34V95h-14a6,6,0,0,0,0,12h14v28H301.87a6,6,0,0,0-6,5.42l-2,20.74a96.48,96.48,0,0,0-24.67,10.38l-15.92-13.19a6,6,0,0,0-8.07.38l-23.78,23.79a6,6,0,0,0-.38,8.07l13.21,15.95a98.94,98.94,0,0,0-10.41,24.63l-20.73,2a6,6,0,0,0-5.42,6v33.72a6,6,0,0,0,5.42,6l20.73,2a96.84,96.84,0,0,0,10.38,24.67l-13.18,15.92a6,6,0,0,0,.38,8.07l23.78,23.78a6,6,0,0,0,8.07.38l16-13.21a98.38,98.38,0,0,0,24.63,10.4l2,20.74a6,6,0,0,0,6,5.42h10.71v16h-228V107h163a6,6,0,1,0,0-12h-163V81A34,34,0,0,1,118.57,47Zm-34,358h228v26a34,34,0,0,1-34,34h-160a34,34,0,0,1-34-34Z" transform="translate(-72.58 -35)"/><path class="cls-1" d="M267.27,107h11.11a6,6,0,0,0,0-12H267.27a6,6,0,0,0,0,12Z" transform="translate(-72.58 -35)"/><path class="cls-1" d="M198.57,456a21,21,0,1,0-21-21A21,21,0,0,0,198.57,456Zm0-30a9,9,0,1,1-9,9A9,9,0,0,1,198.57,426Z" transform="translate(-72.58 -35)"/><path class="cls-1" d="M247.08,256a71.65,71.65,0,1,0,71.65-71.65h0A71.73,71.73,0,0,0,247.08,256Zm71.65-59.65A59.65,59.65,0,1,1,259.08,256,59.65,59.65,0,0,1,318.73,196.35Z" transform="translate(-72.58 -35)"/><path class="cls-1" d="M306.6,277.37a6,6,0,0,0,8.38,0l35-34.16a6,6,0,0,0-8.33-8.64l-.06.06-30.79,30.06-15.23-14.86a6,6,0,0,0-8.38,8.58Z" transform="translate(-72.58 -35)"/><path class="cls-1" d="M179,237h-8.29a6,6,0,0,0,0,12H179a6,6,0,0,0,0-12Z" transform="translate(-72.58 -35)"/><path class="cls-1" d="M108,249h36.18a6,6,0,0,0,0-12H108a6,6,0,0,0,0,12Z" transform="translate(-72.58 -35)"/><path class="cls-1" d="M179,287H140.71a6,6,0,0,0,0,12H179a6,6,0,0,0,0-12Z" transform="translate(-72.58 -35)"/><path class="cls-1" d="M108,299h6.18a6,6,0,0,0,0-12H108a6,6,0,0,0,0,12Z" transform="translate(-72.58 -35)"/><path class="cls-1" d="M175,343a6,6,0,0,0,6,6h28a6,6,0,0,0,0-12H181A6,6,0,0,0,175,343Z" transform="translate(-72.58 -35)"/><path class="cls-1" d="M154.18,337H108a6,6,0,0,0,0,12h46.18a6,6,0,0,0,0-12Z" transform="translate(-72.58 -35)"/><path class="cls-1" d="M151,195h38a6,6,0,0,0,0-12H151a6,6,0,0,0,0,12Z" transform="translate(-72.58 -35)"/><path class="cls-1" d="M108,195h16.18a6,6,0,0,0,0-12H108a6,6,0,0,0,0,12Z" transform="translate(-72.58 -35)"/></svg>