<svg id="Capa_1" data-name="Capa 1" xmlns="http://www.w3.org/2000/svg" viewBox="0 0 512 510.36"><defs><style>.cls-1{fill:#fff;}</style></defs><title>webp</title><path class="cls-1" d="M453,361.32a7.52,7.52,0,0,0-8.19,1.63l-82.12,82.13A7.51,7.51,0,0,0,368,457.9h82.13a7.51,7.51,0,0,0,7.51-7.51V368.26A7.52,7.52,0,0,0,453,361.32Zm-66.86,81.56,56.47-56.47v56.47Z" transform="translate(0 -0.82)"/><path class="cls-1" d="M507.36,240.87a7.5,7.5,0,0,0-8.19,1.63L476.66,265V112a7.51,7.51,0,0,0-7.51-7.51H411.41l21-21h0l20.19-20.2a22.92,22.92,0,0,0,0-32.41L429.22,7.53a22.92,22.92,0,0,0-32.41,0l-20.2,20.21L352.19,52.15l-52.3,52.31H66.62V30.11a7.51,7.51,0,0,0-7.51-7.51A59.17,59.17,0,0,0,0,81.7V400.89a7.16,7.16,0,0,0,.18,1.61,56.93,56.93,0,0,0,56.75,52.6H286.57l-43.25,43.25a7.52,7.52,0,0,0,5.31,12.83H504.48a7.52,7.52,0,0,0,7.52-7.52V247.81A7.51,7.51,0,0,0,507.36,240.87ZM407.44,18.16a7.9,7.9,0,0,1,11.15,0L442,41.51a7.9,7.9,0,0,1,0,11.15l-14.89,14.9L392.55,33.05ZM381.92,43.68l34.51,34.5L402.64,92l-34.5-34.5ZM497,332.25H483.11a7.52,7.52,0,1,0,0,15H497v22.65H483.11a7.52,7.52,0,1,0,0,15H497V407.6H483.11a7.52,7.52,0,1,0,0,15H497v22.65H483.11a7.52,7.52,0,1,0,0,15H497v35.84H266.77l75.91-75.91a7.51,7.51,0,0,0-10.63-10.62l-30.46,30.45H56.93a41.65,41.65,0,0,1-41.86-40.54c0-1.43.15-2.85.33-4.25v0c.09-.67.19-1.33.3-2,0-.07,0-.15,0-.22.11-.59.22-1.17.35-1.75l.12-.49q.16-.74.36-1.47c.08-.26.15-.52.23-.78s.22-.77.34-1.14.25-.75.38-1.13.19-.52.28-.78c.19-.49.38-1,.58-1.46l.17-.42c.26-.6.53-1.19.81-1.78l0-.07a44.24,44.24,0,0,1,30.75-24l.12,0c.62-.12,1.25-.23,1.88-.33l.32-.06,1.72-.22.49-.06c.55,0,1.12-.09,1.68-.12l.53,0q1.11-.06,2.22-.06a7.51,7.51,0,0,0,7.52-7.51V294.81a7.52,7.52,0,1,0-15,0v47.44a58.75,58.75,0,0,0-33.76,16.34c-1,1-1.9,2-2.8,3V81.7A44.14,44.14,0,0,1,51.59,38.27V264.75h0a7.52,7.52,0,0,0,15,0h0V119.49H284.86L243.32,161a7.51,7.51,0,0,0,10.62,10.63l54.38-54.37h0L357.51,68.1,392,102.6,388,106.65h0L236.42,258.19l-34.5-34.51,29.87-29.86a7.52,7.52,0,0,0-10.63-10.63L186,218.37a7.23,7.23,0,0,0-.53.59l-.16.21c-.11.14-.21.29-.31.43l-.15.27a4.49,4.49,0,0,0-.24.42c-.05.1-.09.19-.13.29s-.13.3-.19.45l-.07.15-14.64,41.48-10,28.28a7.66,7.66,0,0,0-.3,1.14h-25a7.52,7.52,0,0,0,0,15H342.41a7.52,7.52,0,0,0,0-15H193.09l45.83-16.18.12,0,.52-.22.21-.1.53-.29a1,1,0,0,1,.17-.1l.53-.38.13-.1a6.09,6.09,0,0,0,.6-.54L396.38,119.49h65.25V280L354.14,387.53a7.51,7.51,0,0,0,0,10.63,6.91,6.91,0,0,0,.57.51,7.49,7.49,0,0,0,9.48,0c.2-.16.39-.33.58-.51h0L497,266ZM222.68,265.7l-21.53,7.6L186.81,259l7.6-21.52Z" transform="translate(0 -0.82)"/></svg>