<svg id="Layer_1" data-name="Layer 1" xmlns="http://www.w3.org/2000/svg" viewBox="0 0 424 374.09"><defs><style>.cls-1{fill:#fff;}</style></defs><title>sktch</title><path class="cls-1" d="M167.29,297.13a7,7,0,0,1-4.53-1.67l-45.3-38.57a7,7,0,0,1,0-10.66l45.3-38.57a7,7,0,0,1,9.07,10.66l-39,33.24,39,33.24a7,7,0,0,1-4.54,12.33Z" transform="translate(0 -25)"/><path class="cls-1" d="M256.71,297.13a7,7,0,0,1-4.54-12.33l39-33.24-39-33.24a7,7,0,0,1,9.07-10.66l45.3,38.57a7,7,0,0,1,0,10.66l-45.3,38.57A7,7,0,0,1,256.71,297.13Z" transform="translate(0 -25)"/><path class="cls-1" d="M196,326.06a7.21,7.21,0,0,1-1.45-.15,7,7,0,0,1-5.4-8.29l28.23-134a7,7,0,0,1,13.7,2.89l-28.24,134A7,7,0,0,1,196,326.06Z" transform="translate(0 -25)"/><path class="cls-1" d="M377,399.09H47a47.06,47.06,0,0,1-47-47V72A47.06,47.06,0,0,1,47,25H377a47.06,47.06,0,0,1,47,47V352.09A47.06,47.06,0,0,1,377,399.09ZM47,39A33,33,0,0,0,14,72V352.09a33,33,0,0,0,33,33H377a33,33,0,0,0,33-33V72a33,33,0,0,0-33-33Z" transform="translate(0 -25)"/><path class="cls-1" d="M417,137.09H7a7,7,0,0,1,0-14H417a7,7,0,0,1,0,14Z" transform="translate(0 -25)"/><path class="cls-1" d="M119.6,103.59a22.15,22.15,0,1,1,22.15-22.15A22.18,22.18,0,0,1,119.6,103.59Zm0-30.3a8.15,8.15,0,1,0,8.15,8.15A8.16,8.16,0,0,0,119.6,73.29Z" transform="translate(0 -25)"/><path class="cls-1" d="M51.54,103.38A22.16,22.16,0,1,1,73.69,81.23,22.17,22.17,0,0,1,51.54,103.38Zm0-30.31a8.16,8.16,0,1,0,8.15,8.16A8.17,8.17,0,0,0,51.54,73.07Z" transform="translate(0 -25)"/><path class="cls-1" d="M187.66,103.8a22.15,22.15,0,1,1,22.16-22.15A22.16,22.16,0,0,1,187.66,103.8Zm0-30.3a8.15,8.15,0,1,0,8.16,8.15A8.16,8.16,0,0,0,187.66,73.5Z" transform="translate(0 -25)"/></svg>