<svg width="400" height="200" viewBox="0 0 400 200" fill="none" xmlns="http://www.w3.org/2000/svg">
<path d="M59.9109 126.884C68.7036 126.884 75.7945 121.93 77.9927 115.067L68.9163 110.609C67.7109 114.713 64.3072 117.331 59.9109 117.331C54.3091 117.331 50.4091 112.944 50.4091 106.717C50.4091 100.491 54.3091 96.1036 59.9109 96.1036C64.2363 96.1036 67.7109 98.7216 68.9163 102.826L77.9927 98.4386C75.6527 91.292 68.5618 86.5512 59.9109 86.5512C48.2109 86.5512 39.4182 95.1837 39.4182 106.647C39.4182 118.18 48.2818 126.884 59.9109 126.884ZM100.841 126.884C112.328 126.884 121.546 118.393 121.546 106.717C121.546 95.0422 112.328 86.5512 100.841 86.5512C89.3537 86.5512 80.1355 95.0422 80.1355 106.717C80.1355 118.393 89.3537 126.884 100.841 126.884ZM100.841 117.331C95.0264 117.331 91.1264 112.944 91.1264 106.717C91.1264 100.561 95.0264 96.1036 100.841 96.1036C106.656 96.1036 110.556 100.561 110.556 106.717C110.556 112.944 106.656 117.331 100.841 117.331ZM155.159 73.3193V90.6552C152.535 88.0371 148.635 86.5512 144.026 86.5512C133.035 86.5512 124.384 95.396 124.384 106.717C124.384 117.968 132.823 126.884 144.097 126.884C148.848 126.884 153.103 125.327 155.868 122.355V126.034H165.795V73.3193H155.159ZM145.373 117.331C139.559 117.331 135.375 112.944 135.375 106.717C135.375 100.561 139.559 96.1036 145.373 96.1036C151.117 96.1036 155.159 100.491 155.159 106.717C155.159 113.015 151.117 117.331 145.373 117.331ZM209.567 105.585C209.567 94.9007 201.2 86.5512 190.351 86.5512C179.289 86.5512 170.78 95.113 170.78 106.647C170.78 117.826 178.793 126.884 191.06 126.884C199.002 126.884 205.384 123.133 207.724 117.473L199.215 113.439C197.725 116.058 194.96 117.685 191.202 117.685C185.955 117.685 182.48 114.572 181.842 109.689H209.071C209.425 108.628 209.567 107.142 209.567 105.585ZM182.055 101.906C183.118 97.448 186.167 95.0422 190.351 95.0422C194.747 95.0422 197.867 97.8018 198.293 101.906H182.055ZM229.503 126.884C238.793 126.884 245.246 122.001 245.246 114.855C245.246 109.335 241.558 105.373 234.68 103.533L227.518 101.623C226.242 101.269 223.547 100.561 223.547 98.2263C223.547 96.2451 225.391 95.0422 228.51 95.0422C232.694 95.0422 236.027 97.0234 237.304 100.349L245.246 96.6697C242.764 90.3721 236.453 86.5512 228.51 86.5512C219.434 86.5512 213.265 91.4335 213.265 98.5801C213.265 103.887 216.669 107.991 223.689 109.831L230.496 111.6C231.843 111.954 234.963 112.732 234.963 115.279C234.963 117.402 232.836 118.746 229.503 118.746C225.107 118.746 221.632 116.411 219.576 112.095L211.705 115.774C214.116 122.78 221.065 126.884 229.503 126.884ZM270.964 86.5512C266.638 86.5512 262.951 87.9663 260.824 90.9382V73.3193H250.188V126.034H260.824V103.392C260.824 99.0047 263.731 96.1036 267.915 96.1036C272.098 96.1036 275.006 99.0047 275.006 103.392V126.034H285.642V101.127C285.642 92.3534 279.686 86.5512 270.964 86.5512ZM292.012 83.9331H302.648V73.3193H292.012V83.9331ZM292.012 126.034H302.648V87.4003H292.012V126.034ZM312.788 126.034H323.425V96.5989H331.792V87.4003H323.425V86.2681C323.425 82.8717 325.552 81.1028 329.523 81.1028C330.232 81.1028 330.941 81.1735 331.863 81.315V72.2579C330.87 72.0457 329.31 71.9041 328.105 71.9041C318.461 71.9041 312.788 77.1403 312.788 86.2681V87.4003H306.194V96.5989H312.788V126.034ZM356.849 126.459C358.48 126.459 360.394 126.318 361.812 126.105V117.756C360.82 117.897 359.969 117.968 359.33 117.968C354.863 117.968 352.736 116.058 352.736 112.095V96.5989H361.812V87.4003H352.736V75.7959H342.1V81.4565C342.1 85.419 339.901 87.4003 335.93 87.4003H335.434V96.5989H342.1V112.095C342.1 121.152 347.489 126.459 356.849 126.459Z" fill="black"/>
</svg>
