<svg width="176" height="91" viewBox="0 0 176 91" fill="none" xmlns="http://www.w3.org/2000/svg">
<path d="M91.346 48.236V41.754H92.242C94.356 41.754 95.238 42.86 95.238 44.918V45.03C95.238 47.102 94.286 48.236 92.27 48.236H91.346ZM89.078 50H92.34C95.854 50 97.604 47.998 97.604 45.002V44.89C97.604 41.894 95.868 39.99 92.354 39.99H89.078V50ZM101.602 50.154C102.638 50.154 103.492 49.538 103.884 48.81V50H105.9V42.678H103.884V43.756C103.464 43.014 102.778 42.51 101.658 42.51C99.9362 42.51 98.4802 43.924 98.4802 46.332V46.444C98.4802 48.88 99.9362 50.154 101.602 50.154ZM102.19 48.572C101.252 48.572 100.552 47.858 100.552 46.402V46.29C100.552 44.834 101.21 44.064 102.26 44.064C103.282 44.064 103.94 44.778 103.94 46.262V46.374C103.94 47.858 103.184 48.572 102.19 48.572ZM110.87 50.154C112.998 50.154 114.258 48.95 114.37 47.214H112.536C112.438 48.152 111.78 48.628 110.968 48.628C109.834 48.628 109.176 47.872 109.176 46.402V46.29C109.176 44.89 109.876 44.106 110.926 44.106C111.752 44.106 112.27 44.498 112.41 45.352H114.328C114.146 43.252 112.578 42.51 110.884 42.51C108.798 42.51 107.104 43.952 107.104 46.318V46.43C107.104 48.824 108.728 50.154 110.87 50.154ZM118.193 50.154C119.229 50.154 120.083 49.538 120.475 48.81V50H122.491V42.678H120.475V43.756C120.055 43.014 119.369 42.51 118.249 42.51C116.527 42.51 115.071 43.924 115.071 46.332V46.444C115.071 48.88 116.527 50.154 118.193 50.154ZM118.781 48.572C117.843 48.572 117.143 47.858 117.143 46.402V46.29C117.143 44.834 117.801 44.064 118.851 44.064C119.873 44.064 120.531 44.778 120.531 46.262V46.374C120.531 47.858 119.775 48.572 118.781 48.572ZM126.887 50.154C127.965 50.154 128.861 49.524 129.239 48.782V50H131.255V39.36H129.239V43.77C128.833 43.028 128.105 42.51 126.929 42.51C125.095 42.51 123.709 43.924 123.709 46.332V46.444C123.709 48.88 125.109 50.154 126.887 50.154ZM127.489 48.572C126.481 48.572 125.781 47.858 125.781 46.402V46.29C125.781 44.834 126.411 44.064 127.545 44.064C128.651 44.064 129.295 44.806 129.295 46.262V46.374C129.295 47.858 128.553 48.572 127.489 48.572ZM136.291 50.154C138.293 50.154 139.553 49.272 139.791 47.69H137.873C137.747 48.306 137.285 48.712 136.347 48.712C135.241 48.712 134.583 48.012 134.527 46.794H139.805V46.234C139.805 43.616 138.125 42.51 136.235 42.51C134.107 42.51 132.469 44.008 132.469 46.318V46.43C132.469 48.768 134.079 50.154 136.291 50.154ZM134.555 45.548C134.709 44.512 135.325 43.91 136.235 43.91C137.201 43.91 137.761 44.442 137.831 45.548H134.555Z" fill="#111827"/>
<circle cx="60" cy="45" r="20" stroke="#111827" stroke-width="1.5"/>
<path d="M60 65C65.5228 65 70 56.0457 70 45C70 33.9543 65.5228 25 60 25" stroke="#111827" stroke-width="1.5"/>
<path d="M60 65C68.2843 65 75 56.0457 75 45C75 33.9543 68.2843 25 60 25" stroke="#111827" stroke-width="1.5"/>
</svg>
