<svg width="400" height="200" viewBox="0 0 400 200" fill="none" xmlns="http://www.w3.org/2000/svg">
<g clip-path="url(#clip0_2_19)">
<path d="M72 121.034H92.3901V94.6867H102.991L115.807 121.038H137.598L122.682 90.5296C129.789 87.3264 134.915 79.3267 134.915 69.9391C134.915 54.9997 125.245 47 106.369 47H72V121.034ZM113.595 71.5357C113.595 78.0448 109.286 81.1386 103.229 81.1386H92.3868V61.7241H103.223C109.283 61.7208 113.595 65.0266 113.595 71.5357ZM148.781 136.275H169.172V62.2408H148.781V136.275ZM185.253 147.703H241.645V131.595H205.64V117.729H237.217V102.474H205.64V89.7809H240.711V73.6656H185.256V147.7L185.253 147.703ZM256.09 77.4783V151.513H286.154C314.118 151.513 325.301 135.407 325.301 114.499C325.301 93.587 314.118 77.4816 286.157 77.4816H256.09V77.4783ZM276.483 135.301V93.6963H285.922C296.407 93.6963 303.861 99.6721 303.861 114.499C303.861 129.326 296.407 135.301 285.919 135.301H276.48H276.483Z" fill="black"/>
</g>
<defs>
<clipPath id="clip0_2_19">
<rect width="255" height="106" fill="white" transform="translate(72 47)"/>
</clipPath>
</defs>
</svg>
