<svg id="Layer_1" data-name="Layer 1" xmlns="http://www.w3.org/2000/svg" viewBox="0 0 261.84 293.35"><defs><style>.cls-1{fill:#133d47;}.cls-2{fill:#1b6d85;}</style></defs><title>logo</title><path class="cls-1" d="M1127.36,381.05,1013,309.53a31.69,31.69,0,0,0-43.66,10.07L899,432.13h0l-5.68,9.09-3.19,5.11-2.57,4.11-2.29,3.66a31.67,31.67,0,0,0,10.06,43.65l114.38,71.52a31.68,31.68,0,0,0,43.65-10.07l84.1-134.5A31.67,31.67,0,0,0,1127.36,381.05ZM912.28,512.37A11.16,11.16,0,0,0,931,524.56l.21-.34-18.68-12.17A2.35,2.35,0,0,0,912.28,512.37Z" transform="translate(-880.4 -280.74)"/><path class="cls-2" d="M931.19,524.22l-.21.34a11.16,11.16,0,0,1-18.7-12.19,2.35,2.35,0,0,1,.23-.32Z" transform="translate(-880.4 -280.74)"/><path class="cls-2" d="M1054.05,311.48c.44-2.33,1-4.57,1.67-6.78.32-1.11.65-2.21,1-3.29s.71-2.16,1.08-3.23.75-2.14,1.16-3.2.78-2.12,1.21-3.15c.83-2.09,1.68-4.17,2.59-6.2l2.19-4.89,6.53,2.88A230.3,230.3,0,0,1,1124.89,317l5.47,4.62-3.45,4.13c-1.43,1.71-2.93,3.38-4.45,5.05-.74.84-1.53,1.65-2.3,2.47s-1.56,1.63-2.37,2.43c-1.6,1.61-3.24,3.19-5,4.72a69.57,69.57,0,0,1-5.38,4.46c.44-2.33,1-4.57,1.66-6.78s1.33-4.39,2.08-6.53c.36-1.08.75-2.14,1.15-3.19s.78-2.12,1.21-3.16c.83-2.09,1.68-4.17,2.59-6.2l2,8.75a219.56,219.56,0,0,1-27.84-14.88,222.94,222.94,0,0,1-25.55-18.54l8.72-2c-1.44,1.72-2.94,3.39-4.45,5.05-.74.84-1.53,1.65-2.3,2.47s-1.56,1.63-2.37,2.43-1.6,1.61-2.43,2.39-1.66,1.57-2.52,2.34C1057.71,308.55,1056,310.06,1054.05,311.48Z" transform="translate(-880.4 -280.74)"/><path class="cls-2" d="M1137.42,424.7l-84.1,134.5a31.68,31.68,0,0,1-43.65,10.07L895.29,497.75a31.67,31.67,0,0,1-10.06-43.65l2.29-3.66,2.57-4.11c13.86,2.69,42.68,7,67.58,12.6l.33.07c5.82,1.37,22.33,5.26,36,17,16,13.71,22,32.9,24,32,1-.46-1.9-5,0-9,4-8.55,27.61-9.79,45,0,7.5,4.22,11.06,8.92,11.5,8.5,1-1-15.32-30.23-44-46-18.39-10.11-31.29-10.42-83-15-13.45-1.19-31.87-2.91-54.21-5.28h0l5.68-9.09h0L969.32,319.6A31.69,31.69,0,0,1,1013,309.53l114.38,71.52A31.67,31.67,0,0,1,1137.42,424.7Z" transform="translate(-880.4 -280.74)"/><path class="cls-1" d="M1053,355.07l-33,41.79,26.37-46.26a4,4,0,1,1,7,4A3.65,3.65,0,0,1,1053,355.07Z" transform="translate(-880.4 -280.74)"/><path class="cls-1" d="M1076.64,371.6l-33.13,41.73L1070,367.11a4,4,0,0,1,7,4A4.39,4.39,0,0,1,1076.64,371.6Z" transform="translate(-880.4 -280.74)"/><path class="cls-2" d="M993.8,565.05a11.16,11.16,0,0,1-18.69-12.19c.07-.11.14-.22.22-.33L994,564.71A3.13,3.13,0,0,1,993.8,565.05Z" transform="translate(-880.4 -280.74)"/><polygon class="cls-1" points="18.57 151.39 12.88 160.48 12.88 160.48 18.55 151.39 18.57 151.39"/></svg>