<svg id="Layer_1" data-name="Layer 1" xmlns="http://www.w3.org/2000/svg" viewBox="0 0 447.15 114.24"><path d="M188.35,85.43a28.74,28.74,0,0,1-11.52-2.38,30,30,0,0,1-9.43-6.33,31,31,0,0,1-6.34-9.36,29.28,29.28,0,0,1-2.3-11.31,28.05,28.05,0,0,1,2.38-11.38A30.32,30.32,0,0,1,177,29.05a30.3,30.3,0,0,1,11.59-2.31,29.19,29.19,0,0,1,29,29.3,29.37,29.37,0,0,1-8.43,20.67A29,29,0,0,1,188.35,85.43Zm.22-51.49a23,23,0,0,0-8.78,1.73A22.58,22.58,0,0,0,166,56.05a21.73,21.73,0,0,0,6.55,15.55,22.09,22.09,0,0,0,36.22-7,23.29,23.29,0,0,0,1.66-8.57,22,22,0,0,0-6.27-15.55A21.45,21.45,0,0,0,188.57,33.94Z" transform="translate(-6.13 -0.66)" style="fill:#00263f"/><path d="M251.86,85.5a30,30,0,0,1-21-8.71,29.12,29.12,0,0,1-6.34-9.29,28.87,28.87,0,0,1,6.39-32,29.75,29.75,0,0,1,21-8.64,29,29,0,0,1,16.78,5.32,3.58,3.58,0,0,1,.87,5h0a3.65,3.65,0,0,1-5,.87A21.09,21.09,0,0,0,252,34a22.89,22.89,0,0,0-15.91,6.55,22.61,22.61,0,0,0-4.9,7.06,21.73,21.73,0,0,0,4.83,24,22.34,22.34,0,0,0,15.84,6.62,21.81,21.81,0,0,0,9.07-1.94,22.11,22.11,0,0,0,6.31-4.25v-15a3.6,3.6,0,0,1,7.2,0v16.5a3.59,3.59,0,0,1-.94,2.37,29.55,29.55,0,0,1-9.58,7A28.5,28.5,0,0,1,251.86,85.5Z" transform="translate(-6.13 -0.66)" style="fill:#00263f"/><path d="M300.38,61.38H283.75a3.62,3.62,0,0,1-3.6-3.6,3.57,3.57,0,0,1,3.54-3.6h16.69A3.57,3.57,0,0,1,304,57.71v.07A3.62,3.62,0,0,1,300.38,61.38Z" transform="translate(-6.13 -0.66)" style="fill:#00263f"/><path d="M339.34,85.14a29.09,29.09,0,0,1-11.6-2.38,30.59,30.59,0,0,1-9.36-6.33,28.7,28.7,0,0,1-6.33-9.36,27.86,27.86,0,0,1-2.31-11.31,28.57,28.57,0,0,1,8.72-20.66,29.75,29.75,0,0,1,21-8.64A28.4,28.4,0,0,1,357,32.36a3.6,3.6,0,1,1-4.32,5.76,21.38,21.38,0,0,0-13.25-4.46,22.27,22.27,0,0,0-16,6.55,22.81,22.81,0,0,0-4.83,7.06,21.35,21.35,0,0,0-1.73,8.49,21.71,21.71,0,0,0,6.56,15.56,22.29,22.29,0,0,0,15.84,6.62,22.61,22.61,0,0,0,7.63-1.37,22.18,22.18,0,0,0,6.48-3.74A3.58,3.58,0,0,1,358,78.3a29.59,29.59,0,0,1-18.72,6.84Z" transform="translate(-6.13 -0.66)" style="fill:#00263f"/><path d="M386.24,85.36a38.72,38.72,0,0,1-5.69-.43,28.6,28.6,0,0,1-9.22-3c-3.16-1.66-5.25-3.89-6.12-6.34s1.8-5.68,4.4-4.39a5.33,5.33,0,0,1,1.51,1.59c2.59,3.16,6.62,4.53,10.51,5.18a27.65,27.65,0,0,0,9.43-.14c3.39-.72,6.63-2.45,7.93-5.76a7.59,7.59,0,0,0,.21-5.19c-1.65-4.9-7.78-6.7-13-7.78a54.35,54.35,0,0,1-10.15-3c-3.46-1.37-6.92-3.45-8.86-6.77-2.38-4-1.94-10.22-.5-13.17,4.39-8.79,12.89-9.8,17.85-9.8a30.21,30.21,0,0,1,10.73,1.88c4,1.51,7.06,4.1,8,6.84a3.41,3.41,0,0,1-.65,3.38,3,3,0,0,1-3.75.86,9.07,9.07,0,0,1-1-.86,16.2,16.2,0,0,0-6.27-4.1,19.21,19.21,0,0,0-7.06-.94c-5.61,0-12,2.16-12,8.71,0,6,5.26,7.85,17.28,10.8,15.41,3.75,17.43,12.25,16,19.45C403.71,83.12,391,85.36,386.24,85.36Z" transform="translate(-6.13 -0.66)" style="fill:#00263f"/><path d="M433.24,85.36a38.72,38.72,0,0,1-5.69-.43,28.54,28.54,0,0,1-9.21-3c-3.17-1.66-5.26-3.89-6.12-6.34s1.8-5.68,4.39-4.39a5.21,5.21,0,0,1,1.51,1.59c2.6,3.16,6.63,4.53,10.52,5.18a27.65,27.65,0,0,0,9.43-.14c3.38-.72,6.62-2.45,7.92-5.76a7.54,7.54,0,0,0,.21-5.19c-1.65-4.9-7.77-6.7-13-7.78a54.35,54.35,0,0,1-10.15-3c-3.46-1.37-6.91-3.45-8.86-6.77-2.37-4-1.94-10.22-.5-13.17,4.39-8.79,12.89-9.8,17.86-9.8a30.21,30.21,0,0,1,10.73,1.88c4,1.51,7.05,4.1,8,6.84a3.41,3.41,0,0,1-.65,3.38,3,3,0,0,1-3.74.86,9.07,9.07,0,0,1-1-.86,16.2,16.2,0,0,0-6.27-4.1,19.34,19.34,0,0,0-7-.94c-5.62,0-12,2.16-12,8.71,0,6,5.26,7.85,17.28,10.8,15.41,3.75,17.43,12.25,16,19.45C450.65,83.12,438,85.36,433.24,85.36Z" transform="translate(-6.13 -0.66)" style="fill:#00263f"/><path d="M113.47,77.13a5.06,5.06,0,0,1-1.38-.2,4.93,4.93,0,0,1-3.35-6.11A48.09,48.09,0,0,0,99.49,26.6,47.34,47.34,0,0,0,71.76,10.43,4.92,4.92,0,1,1,73.51.74,57.19,57.19,0,0,1,107,20.27,58,58,0,0,1,118.2,73.58,4.94,4.94,0,0,1,113.47,77.13Z" transform="translate(-6.13 -0.66)" style="fill:#00263f"/><path d="M13.16,77.13a4.92,4.92,0,0,1-4.72-3.55,57.87,57.87,0,0,1,10.89-53A57.27,57.27,0,0,1,52.25.9a4.93,4.93,0,1,1,1.91,9.67,47.35,47.35,0,0,0-27.24,16.3,48.08,48.08,0,0,0-9,43.95,4.93,4.93,0,0,1-3.35,6.11A5.06,5.06,0,0,1,13.16,77.13Z" transform="translate(-6.13 -0.66)" style="fill:#00263f"/><path d="M63.32,114.9a56.42,56.42,0,0,1-25.44-6,57.86,57.86,0,0,1-19.57-16,4.93,4.93,0,0,1,7.77-6.06,47.11,47.11,0,0,0,74.47,0,4.93,4.93,0,0,1,7.77,6.06,57.77,57.77,0,0,1-19.57,16A56.38,56.38,0,0,1,63.32,114.9Z" transform="translate(-6.13 -0.66)" style="fill:#00263f"/></svg>