<svg id="Layer_1" data-name="Layer 1" xmlns="http://www.w3.org/2000/svg" viewBox="0 0 453.19 114.24"><path d="M367.11,292.38A28.88,28.88,0,0,1,355.59,290a30,30,0,0,1-9.43-6.33,31.1,31.1,0,0,1-6.34-9.36,29.17,29.17,0,0,1-2.3-11.31,28,28,0,0,1,2.38-11.38,29.45,29.45,0,0,1,6.41-9.29,29.75,29.75,0,0,1,9.43-6.33,30.3,30.3,0,0,1,11.59-2.31,29.05,29.05,0,0,1,26.79,18,29,29,0,0,1,2.23,11.3,29.33,29.33,0,0,1-8.43,20.67A29,29,0,0,1,367.11,292.38Zm.22-51.49a23,23,0,0,0-8.78,1.73,22,22,0,0,0-7.2,4.83A22.13,22.13,0,0,0,344.72,263a21.72,21.72,0,0,0,6.55,15.55,22.3,22.3,0,0,0,15.84,6.63,22.07,22.07,0,0,0,15.7-6.55,22.37,22.37,0,0,0,4.68-7.06,23.29,23.29,0,0,0,1.66-8.57,22,22,0,0,0-6.27-15.55A21.42,21.42,0,0,0,367.33,240.89Z" transform="translate(-178.76 -206.95)" style="fill:#383637"/><path d="M430.62,292.45a30,30,0,0,1-20.95-8.71,29.13,29.13,0,0,1-6.34-9.29A28.36,28.36,0,0,1,401,263.07a28.55,28.55,0,0,1,8.72-20.66,29.79,29.79,0,0,1,21-8.64,28.93,28.93,0,0,1,16.78,5.32,3.58,3.58,0,0,1,.86,5,3.65,3.65,0,0,1-5,.87,21.15,21.15,0,0,0-12.6-4,22.88,22.88,0,0,0-15.91,6.55,22.53,22.53,0,0,0-4.9,7.06,21.72,21.72,0,0,0,4.83,24,22.31,22.31,0,0,0,15.84,6.62,21.7,21.7,0,0,0,9.07-1.94A22.07,22.07,0,0,0,446,279V264a3.6,3.6,0,0,1,7.2,0V280.5a3.61,3.61,0,0,1-.94,2.37,29.52,29.52,0,0,1-9.58,7A28.62,28.62,0,0,1,430.62,292.45Z" transform="translate(-178.76 -206.95)" style="fill:#383637"/><path d="M479.14,268.33H462.51a3.62,3.62,0,0,1-3.6-3.6,3.57,3.57,0,0,1,3.6-3.6h16.63a3.57,3.57,0,0,1,3.61,3.6A3.62,3.62,0,0,1,479.14,268.33Z" transform="translate(-178.76 -206.95)" style="fill:#383637"/><path d="M518.1,292.09a29,29,0,0,1-11.6-2.38,30.48,30.48,0,0,1-9.36-6.33,28.8,28.8,0,0,1-6.33-9.36,27.79,27.79,0,0,1-2.31-11.31,28.55,28.55,0,0,1,8.72-20.66,29.79,29.79,0,0,1,21-8.64,28.39,28.39,0,0,1,17.57,5.9,3.6,3.6,0,0,1-4.32,5.76,21.33,21.33,0,0,0-13.25-4.46,22.31,22.31,0,0,0-16,6.55,22.68,22.68,0,0,0-4.83,7.06,21.34,21.34,0,0,0-1.73,8.49,21.72,21.72,0,0,0,6.56,15.56,22.3,22.3,0,0,0,15.84,6.62,22.59,22.59,0,0,0,7.63-1.37,22.28,22.28,0,0,0,6.48-3.74,3.58,3.58,0,0,1,4.61,5.47,29.6,29.6,0,0,1-18.72,6.84Z" transform="translate(-178.76 -206.95)" style="fill:#383637"/><path d="M565,292.31a38.93,38.93,0,0,1-5.69-.43,28.58,28.58,0,0,1-9.22-3c-3.16-1.66-5.25-3.89-6.12-6.34s1.8-5.68,4.4-4.39a5.33,5.33,0,0,1,1.51,1.59c2.59,3.16,6.62,4.53,10.51,5.18a27.64,27.64,0,0,0,9.43-.14c3.39-.72,6.63-2.45,7.93-5.76a7.61,7.61,0,0,0,.21-5.19c-1.65-4.9-7.78-6.7-13-7.78a54.45,54.45,0,0,1-10.15-2.95c-3.46-1.37-6.92-3.45-8.86-6.77-2.38-4-1.94-10.22-.5-13.17,4.39-8.79,12.89-9.8,17.85-9.8a30.07,30.07,0,0,1,10.73,1.88c4,1.51,7.06,4.1,8,6.84a3.42,3.42,0,0,1-.65,3.38,3,3,0,0,1-3.75.86,9.56,9.56,0,0,1-1-.86,16.28,16.28,0,0,0-6.27-4.1,19.33,19.33,0,0,0-7.06-.94c-5.61,0-12,2.16-12,8.71,0,6.05,5.26,7.85,17.28,10.8,15.41,3.75,17.43,12.25,16,19.45C582.47,290.07,569.79,292.31,565,292.31Z" transform="translate(-178.76 -206.95)" style="fill:#383637"/><path d="M612,292.31a39,39,0,0,1-5.69-.43,28.44,28.44,0,0,1-9.21-3c-3.17-1.66-5.26-3.89-6.12-6.34s1.8-5.68,4.39-4.39a5.21,5.21,0,0,1,1.51,1.59c2.6,3.16,6.63,4.53,10.52,5.18a27.64,27.64,0,0,0,9.43-.14c3.38-.72,6.62-2.45,7.92-5.76a7.55,7.55,0,0,0,.21-5.19c-1.65-4.9-7.77-6.7-13-7.78a54.67,54.67,0,0,1-10.15-2.95c-3.46-1.37-6.91-3.45-8.86-6.77-2.37-4-1.94-10.22-.5-13.17,4.39-8.79,12.89-9.8,17.86-9.8a30.14,30.14,0,0,1,10.73,1.88c4,1.51,7.05,4.1,8,6.84a3.42,3.42,0,0,1-.65,3.38,3,3,0,0,1-3.74.86,9.63,9.63,0,0,1-1-.86,16.28,16.28,0,0,0-6.27-4.1,19.31,19.31,0,0,0-7-.94c-5.62,0-12,2.16-12,8.71,0,6.05,5.26,7.85,17.28,10.8,15.41,3.75,17.43,12.25,16,19.45C629.41,290.07,616.74,292.31,612,292.31Z" transform="translate(-178.76 -206.95)" style="fill:#383637"/><path d="M228.63,212.51c.58,2.75-.68,4.1-4,4.9-28.63,7-43.81,37.61-32.42,65.07,1.86,4.5,1.86,4.5-2.21,7.31-3.7,2.55-3.73,2.54-5.65-1.43-15.76-32.76,3.16-72.36,38.47-80.5C228.63,206.52,228.64,206.53,228.63,212.51Z" transform="translate(-178.76 -206.95)" style="fill:#00263f"/><path d="M282.75,264.79c.06-23.52-14.83-42.44-36.66-47.65-1.31-.31-3.16-.06-3.39-1.94-.29-2.51-.67-5.13.28-7.56.45-1.17,1.77-.54,2.74-.37,22.72,3.87,41.52,22.64,45.74,45.53a57.81,57.81,0,0,1-4.74,36.09c-1.13,2.4-2.07,3-4.43,1.24-4.74-3.59-4.83-3.46-2.64-9A41.68,41.68,0,0,0,282.75,264.79Z" transform="translate(-178.76 -206.95)" style="fill:#00263f"/><path d="M235.75,321.19a57.38,57.38,0,0,1-40.42-17c-2.94-2.88-2.87-3.07.46-5.32,4.42-3,4.42-3,8.39.45,19.64,17,46.47,16.16,65.1-2.13,1.76-1.73,2.87-1.52,4.57-.16,5.46,4.36,5.44,4.25.24,9A57,57,0,0,1,235.75,321.19Z" transform="translate(-178.76 -206.95)" style="fill:#00263f"/></svg>