<svg id="Layer_1" data-name="Layer 1" xmlns="http://www.w3.org/2000/svg" viewBox="0 0 456.11 115.53"><text transform="translate(156.24 84.21)" style="font-size:72px;fill:#383637;font-family:Aquatico-Regular, Aquatico"><tspan style="letter-spacing:-0.009989420572916666em">O</tspan><tspan x="63.14" y="0">G-CSS</tspan></text><path d="M228.63,212.51c.58,2.75-.68,4.1-4,4.9-28.63,7-43.81,37.61-32.42,65.07,1.86,4.5,1.86,4.5-2.21,7.31-3.7,2.55-3.73,2.54-5.65-1.43-15.76-32.76,3.16-72.36,38.47-80.5C228.63,206.52,228.64,206.53,228.63,212.51Z" transform="translate(-178.76 -206.95)" style="fill:#00263f"/><path d="M282.75,264.79c.06-23.52-14.83-42.44-36.66-47.65-1.31-.31-3.16-.06-3.39-1.94-.29-2.51-.67-5.13.28-7.56.45-1.17,1.77-.54,2.74-.37,22.72,3.87,41.52,22.64,45.74,45.53a57.81,57.81,0,0,1-4.74,36.09c-1.13,2.4-2.07,3-4.43,1.24-4.74-3.59-4.83-3.46-2.64-9A41.68,41.68,0,0,0,282.75,264.79Z" transform="translate(-178.76 -206.95)" style="fill:#00263f"/><path d="M235.75,321.19a57.38,57.38,0,0,1-40.42-17c-2.94-2.88-2.87-3.07.46-5.32,4.42-3,4.42-3,8.39.45,19.64,17,46.47,16.16,65.1-2.13,1.76-1.73,2.87-1.52,4.57-.16,5.46,4.36,5.44,4.25.24,9A57,57,0,0,1,235.75,321.19Z" transform="translate(-178.76 -206.95)" style="fill:#00263f"/></svg>