<svg id="Layer_1" data-name="Layer 1" xmlns="http://www.w3.org/2000/svg" viewBox="0 0 875.1 174.24"><path d="M-13.58,122.34q2.72-1.23,5.48-2.45" transform="translate(14.41 -59.44)" style="fill:none;stroke:#58dcd0;stroke-width:4px"/><path d="M3,115.25c38-15.12,80.47-23.75,111-4.07,37.9,24.41,22.08,75,55.81,93,57.1,30.49,177.64-70.79,184.79-76.9,41.71-35.6,62.75-68.18,99.22-65.73,26.32,1.77,46.5,20.83,53.33,27.29,20.84,19.68,19.8,34.53,45.89,84.33,18.63,35.57,28,53.36,39.68,57.05,27.79,8.73,64.37-23.5,106.66-60.77,22.65-20,32.12-32.12,55.81-43.41,22.5-10.72,47.83-13.45,58.29-14.88a277.27,277.27,0,0,1,30-2.43" transform="translate(14.41 -59.44)" style="fill:none;stroke:#58dcd0;stroke-width:4px;stroke-dasharray:12.008063316345215,12.008063316345215"/><path d="M849.47,108.66c2.12,0,4.12,0,6,0" transform="translate(14.41 -59.44)" style="fill:none;stroke:#58dcd0;stroke-width:4px"/><polygon points="849.96 68.02 848.97 49.13 847.98 30.25 875.1 47.76 849.96 68.02" style="fill:#014a67"/></svg>