<svg id="Layer_1" data-name="Layer 1" xmlns="http://www.w3.org/2000/svg" viewBox="0 0 737.96 292.24"><path d="M786.32,336.28c-1-1.66-2-3.38-3.08-5.15" transform="translate(-50.09 -160.2)" style="fill:none;stroke:#58dcd0;stroke-width:4px"/><path d="M776.76,321A289.23,289.23,0,0,0,720,258.28c-29.24-24-74.38-61.09-133.33-56.29-38.93,3.17-66.18,23.12-87.51,38.82-16.41,12.08-49,36.85-63.16,79.47-4.36,13.09-10.22,31.55-2,51,7.91,18.72,24.13,27.12,28,29,27.55,13.34,54.38-1,58-3,2.89-1.61,23.67-13.58,31-38,8.08-26.92-5.44-51.2-18-73-5.78-10-28.71-47.82-79-78.6-42-25.71-80-32.38-113-38.16-31-5.43-66-11.58-111-3.24-26.13,4.84-61.91,11.47-94,40-26.73,23.75-37.87,51.11-48,76-12.18,29.93-18.9,62.6-19,85v47" transform="translate(-50.09 -160.2)" style="fill:none;stroke:#58dcd0;stroke-width:4px;stroke-dasharray:12.024284362792969,12.024284362792969"/><path d="M69,420.27v6" transform="translate(-50.09 -160.2)" style="fill:none;stroke:#58dcd0;stroke-width:4px"/><polygon points="0 266.08 18.91 266.08 37.83 266.08 18.91 292.24 0 266.08" style="fill:#014a67"/></svg>