<svg id="Layer_1" data-name="Layer 1" xmlns="http://www.w3.org/2000/svg" viewBox="0 0 512 472"><defs><style>.cls-1{fill:#fff;}</style></defs><title>seo</title><path class="cls-1" d="M312.89,143.38A10,10,0,0,0,327,129.24l-.14-.14a10,10,0,0,0-14.14,14.15Z" transform="translate(0 -20)"/><path class="cls-1" d="M474.22,238l34.85-34.86A10,10,0,0,0,502,186.07H429.75A218,218,0,1,0,63.85,392.15a219.86,219.86,0,0,0,40.08,31.7L73.8,477.07A10,10,0,0,0,82.5,492H134a10,10,0,0,0,8.7-5.07L164,449.29a220.56,220.56,0,0,0,108,0l21.31,37.64A10,10,0,0,0,302,492h51.5a10,10,0,0,0,8.7-14.93l-30.12-53.22a219.79,219.79,0,0,0,40.07-31.7,217.36,217.36,0,0,0,57.6-102.22H502a10,10,0,0,0,7.07-17.07Zm-18.29-10H386.14l21.93-21.93h69.79ZM128.17,472H99.65l21.77-38.45a215.83,215.83,0,0,0,23,9.77Zm208.18,0H307.83L291.6,443.32a215.83,215.83,0,0,0,23-9.77ZM358,378a199,199,0,0,1-43.85,33.16c-.2.09-.39.18-.59.29l-.34.22a195,195,0,0,1-38.35,16.06,9.75,9.75,0,0,0-1.55.45,199.9,199.9,0,0,1-110.66,0,10.68,10.68,0,0,0-1.56-.45,194.89,194.89,0,0,1-38.34-16.06l-.34-.22c-.2-.11-.39-.2-.59-.29A199,199,0,0,1,78,378,198,198,0,1,1,409.11,186.07h-5.18a10,10,0,0,0-7.07,2.93l-26.54,26.54a154,154,0,0,0-17.44-51.93,10,10,0,0,0-17.51,9.66A132.78,132.78,0,0,1,351.53,228h-44.1a90,90,0,1,0,0,20h44.05A133.93,133.93,0,1,1,123.25,143.25c42-42,107.56-51.29,159.48-22.62a10,10,0,0,0,9.66-17.51,155.09,155.09,0,0,0-95-17.75A154,154,0,0,0,218,392,154,154,0,0,0,370.35,260.49L396.85,287a10,10,0,0,0,7.08,2.93h5.17A197.45,197.45,0,0,1,358,378ZM250.66,219.14A10,10,0,0,0,237,215.48l-24,13.86a10,10,0,0,0,0,17.32l24,13.86A10,10,0,0,0,251.21,248h36.08a69.53,69.53,0,0,1-19.79,39.5h0A70,70,0,1,1,287.29,228H251.22A10,10,0,0,0,250.66,219.14Zm157.41,50.79L386.14,248h69.79l21.93,21.93Z" transform="translate(0 -20)"/></svg>